<svg xmlns="http://www.w3.org/2000/svg" width="512" height="512" viewBox="0 0 512 512" fill="none">
  <!-- LibreTracks .ltset whole-session icon — amber: the entire show. -->
  <defs>
    <linearGradient id="bg" x1="64" y1="48" x2="448" y2="464" gradientUnits="userSpaceOnUse">
      <stop offset="0" stop-color="#451A03" />
      <stop offset="1" stop-color="#F59E0B" />
    </linearGradient>
    <linearGradient id="accent" x1="140" y1="122" x2="368" y2="356" gradientUnits="userSpaceOnUse">
      <stop offset="0" stop-color="#FFFBEB" />
      <stop offset="1" stop-color="#FDE68A" />
    </linearGradient>
  </defs>
  <rect x="32" y="32" width="448" height="448" rx="104" fill="url(#bg)" />
  <rect x="112" y="142" width="36" height="228" rx="18" fill="#FEF3C7" fill-opacity="0.92" />
  <rect x="176" y="194" width="36" height="176" rx="18" fill="#FEF3C7" fill-opacity="0.78" />
  <rect x="240" y="164" width="36" height="206" rx="18" fill="#FEF3C7" fill-opacity="0.84" />
  <path d="M343.5 153.3C343.5 141.4 356.9 134.4 366.6 141.2L416.8 176.2C425.1 181.9 425.1 194.1 416.8 199.8L366.6 234.8C356.9 241.6 343.5 234.6 343.5 222.7V153.3Z" fill="url(#accent)" />
  <!-- Type badge -->
  <g>
    <rect x="286" y="372" width="170" height="74" rx="20" fill="#B45309" />
    <rect x="286" y="372" width="170" height="74" rx="20" fill="#000000" fill-opacity="0.12" />
    <text x="371" y="423" font-family="Arial, Helvetica, sans-serif" font-size="46" font-weight="700" fill="#FFFBEB" text-anchor="middle" letter-spacing="2">SET</text>
  </g>
</svg>
