<svg xmlns="http://www.w3.org/2000/svg" width="512" height="512" viewBox="0 0 512 512" fill="none">
  <defs>
    <linearGradient id="bg" x1="64" y1="48" x2="448" y2="464" gradientUnits="userSpaceOnUse">
      <stop offset="0" stop-color="#0F172A" />
      <stop offset="1" stop-color="#0EA5A4" />
    </linearGradient>
    <linearGradient id="accent" x1="140" y1="122" x2="368" y2="356" gradientUnits="userSpaceOnUse">
      <stop offset="0" stop-color="#F8FAFC" />
      <stop offset="1" stop-color="#BFDBFE" />
    </linearGradient>
  </defs>
  <rect x="32" y="32" width="448" height="448" rx="104" fill="url(#bg)" />
  <rect x="112" y="142" width="36" height="228" rx="18" fill="#A7F3D0" fill-opacity="0.92" />
  <rect x="176" y="194" width="36" height="176" rx="18" fill="#A7F3D0" fill-opacity="0.78" />
  <rect x="240" y="164" width="36" height="206" rx="18" fill="#A7F3D0" fill-opacity="0.84" />
  <path d="M343.5 153.3C343.5 141.4 356.9 134.4 366.6 141.2L416.8 176.2C425.1 181.9 425.1 194.1 416.8 199.8L366.6 234.8C356.9 241.6 343.5 234.6 343.5 222.7V153.3Z" fill="url(#accent)" />
  <path d="M333.8 270.6C333.8 258.7 347.2 251.7 356.9 258.5L407.1 293.5C415.4 299.2 415.4 311.4 407.1 317.1L356.9 352.1C347.2 358.9 333.8 351.9 333.8 340V270.6Z" fill="#F8FAFC" fill-opacity="0.95" />
</svg>